<?xml version="1.0" encoding="UTF-8" standalone="no"?>
<svg
   xmlns:dc="http://purl.org/dc/elements/1.1/"
   xmlns:cc="http://creativecommons.org/ns#"
   xmlns:rdf="http://www.w3.org/1999/02/22-rdf-syntax-ns#"
   xmlns:svg="http://www.w3.org/2000/svg"
   xmlns="http://www.w3.org/2000/svg"
   xmlns:sodipodi="http://sodipodi.sourceforge.net/DTD/sodipodi-0.dtd"
   xmlns:inkscape="http://www.inkscape.org/namespaces/inkscape"
   shape-rendering="geometricPrecision"
   text-rendering="geometricPrecision"
   image-rendering="optimizeQuality"
   fill-rule="evenodd"
   clip-rule="evenodd"
   viewBox="0 0 320 512.29"
   version="1.1"
   id="svg4"
   sodipodi:docname="sort-arrows-asc.svg"
   inkscape:version="0.92.5 (2060ec1f9f, 2020-04-08)">
  <metadata
     id="metadata10">
    <rdf:RDF>
      <cc:Work
         rdf:about="">
        <dc:format>image/svg+xml</dc:format>
        <dc:type
           rdf:resource="http://purl.org/dc/dcmitype/StillImage" />
        <dc:title></dc:title>
      </cc:Work>
    </rdf:RDF>
  </metadata>
  <defs
     id="defs8" />
  <sodipodi:namedview
     pagecolor="#ffffff"
     bordercolor="#666666"
     borderopacity="1"
     objecttolerance="10"
     gridtolerance="10"
     guidetolerance="10"
     inkscape:pageopacity="0"
     inkscape:pageshadow="2"
     inkscape:window-width="1920"
     inkscape:window-height="1028"
     id="namedview6"
     showgrid="false"
     inkscape:zoom="0.92135318"
     inkscape:cx="-194.38758"
     inkscape:cy="207.63863"
     inkscape:window-x="0"
     inkscape:window-y="0"
     inkscape:window-maximized="1"
     inkscape:current-layer="svg4" />
  <path
     d="m 16.1,310.66 h 287.79 c 8.9,0 16.11,7.21 16.11,16.11 0,4.18 -1.59,7.98 -4.2,10.85 L 176.1,506.46 c -5.66,6.85 -15.82,7.8 -22.66,2.14 L 151.56,506.77 3.96,337.34 c -5.84,-6.7 -5.14,-16.88 1.57,-22.71 2.928097,-2.5567 6.682782,-3.96693 10.57,-3.97 z m 253.57,32.22 H 51.49 l 111.9,128.45 z M 303.89,201.63 H 16.1 c -3.75,0 -7.52,-1.31 -10.57,-3.96 -6.71,-5.84 -7.41,-16.01 -1.57,-22.72 L 151.55,5.52 153.44,3.69 c 6.84,-5.66 17,-4.7 22.66,2.14 l 139.7,168.84 c 2.61,2.87 4.2,6.68 4.2,10.85 0,8.9 -7.21,16.11 -16.11,16.11 z"
     id="path2"
     inkscape:connector-curvature="0"
     style="fill-rule:nonzero"
     sodipodi:nodetypes="csscccccccccccssccccccss" />
</svg>
